<svg xmlns="http://www.w3.org/2000/svg" width="40" height="40" viewBox="0 0 40 40"><title>AMEX</title><rect x="8" y="12" width="24" height="16" rx="2.3" ry="2.3" style="fill:#00adef"/><path d="M18.3,21.2l-1.4-3.1H15.2v4.4l-2-4.4H11.8l-2,4.6H11l.4-1h2.2l.4,1h2.3V19.3l1.5,3.4h1l1.5-3.3v3.3h1.1V18.2H19.7l-1.4,3.1Zm-5.8-.5h-.7l.7-1.6h0l.7,1.5Z" style="fill:#fff;fill-rule:evenodd"/><path d="M28.4,20.4l.8-.9,1.2-1.3H29l-1.3,1.4-1.3-1.4H22.1v4.5h4.3l1.3-1.5L29,22.7h1.4l-1.2-1.4Zm-2.7,1.4H23.2v-.9h2.5V20H23.2v-.8h2.5L27,20.4Z" style="fill:#fff"/></svg>