<svg xmlns="http://www.w3.org/2000/svg" width="40" height="40" viewBox="0 0 40 40"><title>visa</title><rect x="8" y="15" width="24" height="10" style="fill:#fff"/><path d="M29.7,12H10.3A2.3,2.3,0,0,0,8,14.3H8V15H32v-.7A2.3,2.3,0,0,0,29.7,12Z" style="fill:#0a5296"/><path d="M8,25.7A2.3,2.3,0,0,0,10.3,28H29.7A2.3,2.3,0,0,0,32,25.7V25H8Z" style="fill:#f4a428"/><polygon points="16.6 23 17.6 17 19.2 17 18.2 23 16.6 23" style="fill:#00589f"/><path d="M23.9,17.2,22.5,17c-1.6,0-2.7.8-2.7,1.9s.8,1.3,1.4,1.6.8.5.8.7-.5.6-.9.6a3.3,3.3,0,0,1-1.5-.3h-.2l-.2,1.3A5,5,0,0,0,21,23c1.7,0,2.7-.8,2.8-2s-.4-1.2-1.3-1.6-.9-.4-.9-.7.3-.5.9-.5l1.2.2h.1l.2-1.3" style="fill:#00589f"/><path d="M28,17H26.8a.9.9,0,0,0-.8.6L23.6,23h1.7l.3-.9h2l.2.9h1.5L28,17m-2,4a8.9,8.9,0,0,0,.6-1.7l.2-.6v.6a16.9,16.9,0,0,0,.4,1.7Z" style="fill:#00589f"/><path d="M15.3,17l-1.6,4-.2-.8a4.5,4.5,0,0,0-2.2-2.4L12.8,23h1.6L17,17H15" style="fill:#00589f"/><path d="M12,17H9.7v.2a5.3,5.3,0,0,1,3.8,3.1L13,17.5a.7.7,0,0,0-.7-.5" style="fill:#f9a51a"/></svg>